<svg width="111" height="101" viewBox="0 0 111 101" fill="none" xmlns="http://www.w3.org/2000/svg">
<g id="Group">
<path id="Vector" d="M80.2371 92.9715C79.5623 89.6729 78.6014 86.4279 77.3903 83.2857C75.2898 77.8462 72.434 72.7061 68.9258 68.0487C67.1739 65.72 65.2566 63.5165 63.1963 61.456C61.5695 59.829 59.5004 57.0534 57.1496 56.5796C56.229 56.3963 55.4469 56.955 55.4692 57.8937C55.4826 58.3809 55.6837 58.8412 55.8715 59.2927C60.1216 69.4298 58.2892 80.9123 62.5885 90.978C63.8578 93.9503 65.7214 96.7528 68.3135 98.7284C70.6956 100.548 73.9133 101.714 76.8361 100.503C78.1322 99.9665 79.2807 99.0457 79.9556 97.7987C80.769 96.2835 80.5678 94.5939 80.2371 92.9715Z" fill="#FF7236"/>
<path id="Vector_2" d="M50.2524 21.0374C49.1664 15.799 49.8413 4.86174 46.2883 1.39776C43.9822 -0.747673 40.3399 -0.269422 38.1545 1.78662C34.0205 6.0596 35.4596 12.9026 37.0953 17.9399C38.4673 22.1682 40.4069 26.1775 42.351 30.1689C44.4828 34.5536 46.0425 39.3138 48.657 43.4482C48.9609 43.9265 49.2916 44.4047 49.7608 44.7265C52.0445 46.2954 52.4914 42.9744 52.4289 41.3877C52.2948 37.9595 51.7809 34.5804 51.3921 31.179C51.0077 27.8447 50.9317 24.3226 50.2524 21.0374Z" fill="#FF7236"/>
<path id="Vector_3" d="M47.3302 59.0126C47.3124 59.035 47.2945 59.0529 47.2766 59.0752C42.3516 64.5729 37.4088 70.0571 32.4659 75.5414C30.2313 78.022 27.8136 80.3284 25.6326 82.8582C24.0148 84.7355 21.8517 87.2161 21.7758 89.8443C21.6819 92.9909 24.4439 95.4134 27.4337 95.704C33.0514 96.0124 37.1227 90.9125 39.7908 86.6261C42.4455 82.3576 44.4388 77.6645 46.365 73.0339C47.3482 70.6739 55.0351 58.4048 51.0396 57.0639C49.5738 56.5722 48.2196 58.0204 47.3302 59.0126Z" fill="#FF7236"/>
<path id="Vector_4" d="M66.1051 36.887C67.9821 34.0622 69.7341 31.1257 71.6156 28.4081C73.8993 25.105 76.1473 21.7796 78.3148 18.4006C80.2097 15.4506 83.6107 11.6201 83.5616 7.93265C83.5079 3.5077 77.6399 5.26874 75.097 6.11351C70.4714 7.65106 66.2526 10.3776 63.7856 14.6952C62.0159 17.7882 60.9745 21.2388 60.0271 24.676C58.8606 28.8998 57.8059 33.1817 57.4127 37.5575C57.1892 40.0337 57.0507 47.7483 61.1221 43.3904C62.9544 41.4148 64.5722 39.1889 66.1051 36.887Z" fill="#FF7236"/>
<path id="Vector_5" d="M45.0953 55.3999C46.083 53.8355 45.6718 52.5169 43.5356 52.289C40.4027 51.9538 37.2878 53.0175 34.213 53.4153C26.5752 54.7875 18.942 56.1597 11.3042 57.5319C7.78699 58.1621 3.84526 58.6538 1.12356 61.2059C-0.601531 62.5513 -0.248482 64.1246 1.55705 65.1571C2.79053 66.1181 4.05526 67.0478 5.37813 67.8836C10.683 71.7141 16.8906 71.9331 22.8659 69.6089C27.0043 67.9998 30.9416 65.908 34.7001 63.548C38.119 61.3981 42.3647 59.0426 44.8361 55.7798C44.93 55.6546 45.0193 55.525 45.0953 55.3999Z" fill="#FF7236"/>
<path id="Vector_6" d="M16.5918 34.1874C21.5481 38.6794 27.2239 42.3892 33.3377 45.1112C37.1454 46.8052 41.114 48.1327 45.1853 49.0266C45.3015 49.0177 45.3998 48.9998 45.4847 48.9774C46.4054 48.7271 46.3697 47.9986 45.8512 47.3192C43.9876 44.8788 42.0793 42.4696 40.3408 39.9443C39.438 38.6302 38.5487 37.3072 37.6816 35.9663C37.3733 35.488 35.5544 31.9257 35.1387 31.9257C33.9902 30.0619 32.8282 28.2025 31.5455 26.4325C30.9556 25.6191 28.4842 21.6455 27.4473 21.6455C22.6653 16.0853 8.96299 11.8123 7.58203 22.2445C8.1362 26.7856 13.526 30.9782 16.5918 34.1874Z" fill="#FF7236"/>
<path id="Vector_7" d="M96.3209 46.1126C90.6317 43.9806 84.4911 43.5471 78.4891 44.2354C74.9003 44.6466 71.3608 45.4064 67.8704 46.3227C66.0783 46.792 64.2995 47.306 62.5253 47.8424C61.2694 48.2223 59.455 48.4011 58.8427 49.7465C56.988 53.8049 63.7141 55.4721 66.1631 56.0934C72.4467 57.6801 78.7795 58.8646 85.2285 59.5439C91.3646 60.192 97.5365 60.4602 103.708 60.5004C105.956 60.4781 109.692 60.9921 110.206 58.0421C109.313 52.5847 101.134 47.972 96.3209 46.1126Z" fill="#FF7236"/>
</g>
</svg>
