<svg width="129" height="90" viewBox="0 0 129 90" fill="none" xmlns="http://www.w3.org/2000/svg">
<rect width="128.852" height="90" fill="#FFF0DE"/>
<g opacity="0.16">
<path d="M53.6505 5.33306C45.1547 7.03094 50.594 18.529 51.0556 19.4778C50.5316 18.4167 43.7824 5.32058 36.6215 14.0721C31.8558 19.8898 37.894 27.5427 45.1921 33.3729C35.3739 30.0646 24.2208 28.8411 23.2353 37.2555C22.2247 45.8073 34.6503 44.2593 35.8604 44.097C34.563 44.2967 20.2162 46.6937 26.2793 56.1568C30.3338 62.4864 39.4783 59.1156 47.263 53.9721C41.0877 62.2991 36.4842 72.5238 44.1691 76.0694C51.9788 79.6649 54.3616 67.3553 54.5737 66.1568C54.3616 67.4427 52.1909 81.8621 63.0819 79.0032C70.3551 77.0931 69.9684 67.3553 67.4858 58.3541C73.4865 66.806 81.7827 74.3465 87.5339 68.1293C93.3724 61.7998 82.4065 55.7324 81.3336 55.1706C82.4938 55.7698 95.5182 62.2867 96.1669 51.0383C96.6036 43.5227 87.222 40.8885 77.9028 40.464C87.7834 37.3679 97.5267 31.7999 93.3849 24.3967C89.1806 16.8811 80.0236 25.4454 79.1504 26.2943C80.086 25.3829 90.291 14.996 79.8116 10.9011C72.8128 8.16701 67.3985 16.2694 64.1174 25.0209C64.2422 14.6714 61.9592 3.68513 53.6505 5.33306Z" fill="#F89A29"/>
<path d="M52.1415 21.2006C53.5013 21.0508 54.7239 22.037 54.8736 23.3978C55.0234 24.7586 54.0378 25.9821 52.678 26.1319C51.3181 26.2817 50.0955 25.2955 49.9458 23.9347C49.7961 22.5739 50.7817 21.3504 52.1415 21.2006Z" fill="#691500"/>
<path d="M74.9081 27.6049C76.2679 27.4551 77.4905 28.4413 77.6402 29.8021C77.79 31.1629 76.8044 32.3864 75.4446 32.5362C74.0847 32.686 72.8621 31.6998 72.7124 30.339C72.5627 28.9657 73.5483 27.7422 74.9081 27.6049Z" fill="#691500"/>
<path d="M77.4042 51.3275C78.764 51.1777 79.9866 52.164 80.1363 53.5248C80.286 54.8856 79.3005 56.109 77.9406 56.2589C76.5808 56.4087 75.3582 55.4224 75.2085 54.0616C75.0588 52.6883 76.0444 51.4649 77.4042 51.3275Z" fill="#691500"/>
<path d="M55.7343 59.1303C57.0941 58.9805 58.3167 59.9667 58.4664 61.3275C58.6161 62.6883 57.6306 63.9118 56.2707 64.0616C54.9109 64.2114 53.6883 63.2251 53.5386 61.8644C53.3889 60.4911 54.3745 59.2676 55.7343 59.1303Z" fill="#691500"/>
<path d="M40.1395 41.0268C41.4993 40.8769 42.7219 41.8632 42.8716 43.224C43.0213 44.5848 42.0358 45.8083 40.6759 45.9581C39.3161 46.1079 38.0935 45.1216 37.9438 43.7608C37.7941 42.3876 38.7797 41.1641 40.1395 41.0268Z" fill="#691500"/>
<path d="M58.8653 43.1609C58.6033 43.1609 58.3663 42.9986 58.2789 42.7489L51.9788 24.8214C51.8666 24.4968 52.0287 24.1347 52.3656 24.0224C52.6899 23.91 53.0517 24.0848 53.164 24.4094L59.4641 42.3369C59.5764 42.6615 59.4142 43.0235 59.0774 43.1359C59.0025 43.1484 58.9277 43.1609 58.8653 43.1609Z" fill="#691500"/>
<path d="M59.4891 43.1858C59.4392 43.1858 59.3894 43.1858 59.327 43.1733C58.9278 43.0859 58.6783 42.6989 58.7656 42.2994C59.9008 37.0185 61.2856 31.7252 62.87 26.5566C62.9948 26.1696 63.4065 25.9449 63.7932 26.0697C64.1799 26.1946 64.4045 26.6066 64.2798 26.9936C62.7078 32.1247 61.3355 37.3806 60.2127 42.6115C60.1379 42.9486 59.826 43.1858 59.4891 43.1858Z" fill="#691500"/>
<path d="M59.2889 43.5208C59.1018 43.5208 58.9271 43.4459 58.8023 43.2836C58.5902 43.0089 58.6276 42.6219 58.9021 42.4097C64.0919 38.2774 69.4314 34.1201 74.7585 30.0377C75.0329 29.8255 75.4196 29.8754 75.6317 30.1501C75.8438 30.4247 75.7814 30.8117 75.5195 31.024C70.1924 35.0939 64.8654 39.2512 59.6756 43.371C59.5633 43.4833 59.4261 43.5208 59.2889 43.5208Z" fill="#691500"/>
<path d="M77.3041 53.6967C77.1918 53.6967 77.0796 53.6718 76.9798 53.6093L67.5982 47.9414C64.7288 46.2061 61.7597 44.4209 58.6159 43.1599C58.2915 43.0351 58.1418 42.673 58.2666 42.3485C58.3913 42.0239 58.7531 41.874 59.0775 41.9989C62.3211 43.2848 65.3277 45.1075 68.2345 46.8678L77.616 52.5357C77.9154 52.7105 78.0028 53.0975 77.8281 53.3971C77.7158 53.5844 77.5037 53.6967 77.3041 53.6967Z" fill="#691500"/>
<path d="M55.7211 61.9113C55.6961 61.9113 55.6712 61.9113 55.6337 61.9113C55.2969 61.8614 55.0474 61.5492 55.0973 61.2122C55.9581 54.7328 57.1308 48.216 58.578 41.8489C58.6528 41.5119 58.9772 41.2996 59.3265 41.3745C59.6634 41.4494 59.8754 41.7865 59.8005 42.1236C58.3534 48.4656 57.1932 54.945 56.3324 61.3745C56.3074 61.6741 56.033 61.9113 55.7211 61.9113Z" fill="#691500"/>
<path d="M40.8506 44.1847C40.5886 44.1847 40.3392 44.0225 40.2643 43.7603C40.152 43.4357 40.3391 43.0861 40.6635 42.9738C43.1711 42.1373 45.9157 42.1623 48.3484 42.1997L58.466 42.2996C58.8153 42.2996 59.0898 42.5868 59.0898 42.9238C59.0898 43.2734 58.8029 43.5356 58.466 43.548L48.3484 43.4482C45.9032 43.4232 43.3832 43.3982 41.0752 44.1598C40.9754 44.1723 40.913 44.1847 40.8506 44.1847Z" fill="#691500"/>
<path d="M58.1043 42.4864C58.0045 42.4864 57.8922 42.4614 57.8049 42.4115L46.5145 36.1693C46.2151 36.007 46.1029 35.62 46.265 35.3204C46.4272 35.0208 46.814 34.9084 47.1134 35.0707L58.4037 41.3129C58.7031 41.4752 58.8154 41.8622 58.6532 42.1618C58.5409 42.3616 58.3163 42.4864 58.1043 42.4864Z" fill="#691500"/>
<path d="M47.0014 53.7358C46.8392 53.7358 46.677 53.6734 46.5523 53.536C46.3152 53.2864 46.3277 52.8869 46.5772 52.6497C50.1203 49.3039 53.9003 46.1203 57.8052 43.199C58.0796 42.9868 58.4663 43.0492 58.6784 43.3238C58.8905 43.5985 58.8281 43.9855 58.5537 44.1978C54.6863 47.0941 50.9437 50.2402 47.438 53.561C47.3133 53.6734 47.1511 53.7358 47.0014 53.7358Z" fill="#691500"/>
<path d="M68.6713 57.8049C68.4717 57.8049 68.2846 57.7175 68.1598 57.5427C67.0246 55.9447 65.9392 54.2843 64.8039 52.524C62.7954 49.4154 60.712 46.1944 58.2668 43.4354C58.0422 43.1732 58.0547 42.7862 58.3167 42.549C58.5786 42.3243 58.9654 42.3368 59.2024 42.5989C61.7225 45.4204 63.8184 48.6913 65.8643 51.8373C66.9996 53.5852 68.06 55.2331 69.1828 56.8061C69.3824 57.0808 69.3201 57.4803 69.0331 57.68C68.9208 57.7674 68.7961 57.8049 68.6713 57.8049Z" fill="#691500"/>
<path d="M59.551 43.3835C59.2766 43.3835 59.0146 43.1962 58.9397 42.9091C58.8524 42.572 59.0645 42.2349 59.4013 42.16C65.0527 40.7618 70.8538 39.8879 76.6549 39.5258C77.0292 39.5134 77.2912 39.763 77.3161 40.1126C77.3411 40.4622 77.0791 40.7493 76.7298 40.7743C71.0035 41.1238 65.2773 41.9977 59.7007 43.371C59.6508 43.371 59.601 43.3835 59.551 43.3835Z" fill="#691500"/>
<path d="M58.8282 33.5839C63.519 33.0845 67.7232 36.4802 68.2347 41.1744C68.7338 45.8685 65.3404 50.0757 60.6497 50.5876C55.9589 51.0869 51.7546 47.6912 51.2431 42.9971C50.7441 38.303 54.1374 34.0833 58.8282 33.5839Z" fill="white"/>
</g>
</svg>
