<svg width="130" height="90" viewBox="0 0 130 90" fill="none" xmlns="http://www.w3.org/2000/svg">
<g id="Frame 1171275120">
<rect id="Rectangle 39899" x="0.75" width="128.852" height="90" fill="#E3FCFF"/>
<g id="Group" opacity="0.09">
<g id="Group_2">
<g id="Group_3">
<g id="Group_4">
<path id="Vector" d="M39.9341 32.9201C49.7899 34.492 60.7586 42.7414 60.7586 42.7414C60.7586 42.7414 47.7705 47.1817 37.9148 45.6098C28.059 44.0379 25.0645 37.062 25.0645 37.062C25.0645 37.062 30.0784 31.3482 39.9341 32.9201Z" fill="#F89A29"/>
</g>
<g id="Group_5">
<path id="Vector_2" d="M59.1636 42.4778C59.1292 42.6614 58.9571 42.7876 58.7735 42.7532L28.3113 37.9114C28.1277 37.8769 28.0015 37.7048 28.0359 37.5213C28.0704 37.3377 28.2425 37.2115 28.426 37.2459L58.8882 42.0877C59.0718 42.1221 59.198 42.2943 59.1636 42.4778Z" fill="#FED801"/>
</g>
</g>
<g id="Group_6">
<g id="Group_7">
<path id="Vector_3" d="M55.4473 20.334C60.3694 29.0194 60.7595 42.7303 60.7595 42.7303C60.7595 42.7303 49.1942 35.3528 44.2721 26.6674C39.3499 17.9819 39.5794 13.186 42.9411 11.2814C46.3029 9.37678 50.5251 11.6485 55.4473 20.334Z" fill="#38C3D6"/>
</g>
<g id="Group_8">
<path id="Vector_4" d="M59.968 41.331C59.8074 41.4228 59.6009 41.3654 59.5091 41.2048L44.3067 14.3797C44.2149 14.2191 44.2723 14.0125 44.4329 13.9208C44.5935 13.829 44.8 13.8863 44.8918 14.047L60.0942 40.8835C60.186 41.0441 60.1287 41.2507 59.968 41.331Z" fill="#9AE1EA"/>
</g>
</g>
<g id="Group_9">
<g id="Group_10">
<path id="Vector_5" d="M74.9636 24.6117C71.2462 33.8708 60.7594 42.7284 60.7594 42.7284C60.7594 42.7284 59.3252 29.0864 63.0426 19.8273C66.76 10.5681 70.661 7.75712 74.2407 9.19131C77.8205 10.637 78.681 15.3526 74.9636 24.6117Z" fill="#38C3D6"/>
</g>
<g id="Group_11">
<path id="Vector_6" d="M61.3559 41.2374C61.1838 41.1685 61.1035 40.9735 61.1723 40.8014L72.6802 12.1864C72.7491 12.0143 72.9441 11.934 73.1162 12.0029C73.2883 12.0717 73.3686 12.2668 73.2998 12.4389L61.7919 41.0538C61.723 41.2259 61.528 41.3062 61.3559 41.2374Z" fill="#9AE1EA"/>
</g>
</g>
<g id="Group_12">
<g id="Group_13">
<path id="Vector_7" d="M83.7756 42.5423C74.2182 45.4107 60.7598 42.7374 60.7598 42.7374C60.7598 42.7374 70.5352 33.1111 80.0926 30.2427C89.6501 27.3744 94.2739 28.6709 95.3868 32.3653C96.4883 36.0598 93.3331 39.674 83.7756 42.5423Z" fill="#38C3D6"/>
</g>
<g id="Group_14">
<path id="Vector_8" d="M62.297 42.267C62.2396 42.0949 62.3429 41.8999 62.5265 41.854L92.0707 33.0079C92.2429 32.9506 92.4379 33.0538 92.4838 33.2374C92.5412 33.4095 92.4379 33.6045 92.2543 33.6504L62.71 42.4965C62.5379 42.5424 62.3429 42.4506 62.297 42.267Z" fill="#9AE1EA"/>
</g>
</g>
<g id="Group_15">
<g id="Group_16">
<path id="Vector_9" d="M75.2506 60.6042C67.047 54.9134 60.748 42.7285 60.748 42.7285C60.748 42.7285 74.3671 44.3578 82.5707 50.0486C90.7742 55.7395 92.6444 60.1568 90.4415 63.3235C88.2501 66.5016 83.4541 66.2951 75.2506 60.6042Z" fill="#38C3D6"/>
</g>
<g id="Group_17">
<path id="Vector_10" d="M62.079 43.6466C62.1823 43.4975 62.3888 43.4516 62.5494 43.5663L87.8944 61.1437C88.0436 61.247 88.0895 61.4535 87.9747 61.6142C87.8715 61.7633 87.665 61.8092 87.5043 61.6945L62.1593 44.1171C62.0102 44.0138 61.9643 43.7958 62.079 43.6466Z" fill="#9AE1EA"/>
</g>
</g>
<g id="Group_18">
<g id="Group_19">
<path id="Vector_11" d="M55.8147 65.2166C55.1492 55.2576 60.7483 42.7285 60.7483 42.7285C60.7483 42.7285 67.9652 54.3971 68.6306 64.3561C69.2961 74.3151 67.0129 78.5373 63.1578 78.7898C59.3141 79.0537 56.4802 75.1756 55.8147 65.2166Z" fill="#38C3D6"/>
</g>
<g id="Group_20">
<path id="Vector_12" d="M60.8632 44.3347C61.0468 44.3232 61.2074 44.4609 61.2189 44.6444L63.2726 75.4164C63.2841 75.6 63.1464 75.7606 62.9628 75.7721C62.7793 75.7836 62.6186 75.6459 62.6072 75.4623L60.5534 44.6903C60.5419 44.5068 60.6796 44.3461 60.8632 44.3347Z" fill="#9AE1EA"/>
</g>
</g>
<g id="Group_21">
<g id="Group_22">
<path id="Vector_13" d="M40.0956 52.8963C47.4731 46.1728 60.7479 42.7422 60.7479 42.7422C60.7479 42.7422 56.1241 55.6614 48.7466 62.3848C41.3692 69.1083 36.6536 69.9574 34.0491 67.1005C31.4446 64.2436 32.7296 59.6197 40.0956 52.8963Z" fill="#38C3D6"/>
</g>
<g id="Group_23">
<path id="Vector_14" d="M59.5671 43.8198C59.6933 43.9575 59.6819 44.164 59.5442 44.2903L36.7693 65.0803C36.6316 65.2065 36.4251 65.195 36.2988 65.0573C36.1726 64.9196 36.1841 64.7131 36.3218 64.5869L59.0967 43.7969C59.2344 43.6707 59.4409 43.6822 59.5671 43.8198Z" fill="#9AE1EA"/>
</g>
</g>
<g id="Group_24">
<g id="Group_25">
<path id="Vector_15" d="M39.9348 32.9197C49.7905 34.4916 60.7592 42.7411 60.7592 42.7411C60.7592 42.7411 47.7712 47.1813 37.9154 45.6094C28.0597 44.0376 24.457 40.8709 25.0651 37.0617C25.6617 33.241 30.079 31.3479 39.9348 32.9197Z" fill="#38C3D6"/>
</g>
<g id="Group_26">
<path id="Vector_16" d="M59.1646 42.4781C59.1301 42.6616 58.958 42.7879 58.7745 42.7534L28.3123 37.9116C28.1287 37.8772 28.0025 37.7051 28.0369 37.5215C28.0713 37.3379 28.2434 37.2117 28.427 37.2461L58.8892 42.088C59.0728 42.1224 59.199 42.2945 59.1646 42.4781Z" fill="#9AE1EA"/>
</g>
</g>
</g>
<g id="Group_27">
<g id="Group_28">
<path id="Vector_17" d="M64.3622 45.9894C62.515 47.9858 59.4056 48.1235 57.3978 46.2762C55.4014 44.429 55.2637 41.3197 57.1109 39.3118C58.9582 37.3154 62.0675 37.1778 64.0753 39.025C66.0717 40.8722 66.2094 43.9815 64.3622 45.9894Z" fill="#23487D"/>
</g>
<g id="Group_29">
<g id="Group_30">
<path id="Vector_18" d="M57.4886 44.2557C57.4428 44.3016 57.3969 44.336 57.3395 44.3589C57.133 44.4392 56.9035 44.336 56.8232 44.1295C56.3183 42.7985 56.5249 41.3299 57.3624 40.1826C57.4886 40.0105 57.7411 39.9646 57.9132 40.1023C58.0853 40.2285 58.1312 40.4809 57.9935 40.653C57.3165 41.5823 57.1559 42.7756 57.5575 43.8541C57.6263 43.9918 57.5804 44.1409 57.4886 44.2557Z" fill="white"/>
</g>
<g id="Group_31">
<path id="Vector_19" d="M58.3031 45.5409L58.2917 45.5524C58.131 45.7016 57.8786 45.7016 57.7295 45.5409C57.6377 45.4491 57.5459 45.3344 57.4541 45.2311C57.3164 45.059 57.3508 44.8066 57.5229 44.6689C57.695 44.5313 57.9475 44.5657 58.0851 44.7378C58.154 44.8296 58.2228 44.9099 58.3031 44.9902C58.4523 45.1508 58.4523 45.3918 58.3031 45.5409Z" fill="white"/>
</g>
</g>
</g>
</g>
</g>
</svg>
