<svg width="129" height="90" viewBox="0 0 129 90" fill="none" xmlns="http://www.w3.org/2000/svg">
<g id="Frame 1171275120">
<rect id="Rectangle 39899" width="128.852" height="90" fill="#FFE7FE"/>
<g id="Group" opacity="0.09">
<g id="Group_2">
<path id="Vector" d="M52.0795 10.2488C43.9327 12.3324 49.8037 23.1984 50.3 24.0948C49.7311 23.1015 42.5164 10.7576 36.028 19.6128C31.7186 25.5001 37.9648 32.5987 45.3248 37.8682C35.6406 35.179 24.7702 34.5733 24.2497 42.7743C23.7171 51.1086 35.677 48.9765 36.8391 48.7464C35.5922 49.0007 21.8044 52.0776 28.1839 60.9328C32.4449 66.8564 41.1243 63.1133 48.3995 57.7227C42.8432 66.1054 38.909 76.2567 46.5595 79.2973C54.3189 82.3863 55.9894 70.321 56.1226 69.1581C55.9773 70.4179 54.6336 84.4941 65.032 81.1628C71.9804 78.9339 71.0967 69.5215 68.2277 60.9207C74.4861 68.7947 82.9113 75.6753 88.165 69.3398C93.4912 62.9073 82.5482 57.6015 81.4829 57.1048C82.6329 57.6257 95.5975 63.2587 95.646 52.3321C95.6823 45.0275 86.4581 42.956 77.4035 43.0408C86.8213 39.5278 95.9607 33.6163 91.5665 26.6751C87.0997 19.6128 78.6745 28.3952 77.8756 29.2553C78.7229 28.3226 88.0802 17.723 77.7182 14.3069C70.794 12.0174 65.9762 20.1579 63.2525 28.795C62.8167 18.7406 60.0326 8.21371 52.0795 10.2488Z" fill="#BE63BB"/>
</g>
<g id="Group_3">
<path id="Vector_2" d="M51.8249 30.4892C53.1554 30.4892 54.2339 29.41 54.2339 28.0786C54.2339 26.7472 53.1554 25.668 51.8249 25.668C50.4945 25.668 49.416 26.7472 49.416 28.0786C49.416 29.41 50.4945 30.4892 51.8249 30.4892Z" fill="#691500"/>
</g>
<g id="Group_4">
<path id="Vector_3" d="M73.8324 30.7124C75.1397 30.4943 76.3744 31.3907 76.5923 32.699C76.8102 34.0073 75.9144 35.2429 74.6071 35.4609C73.2997 35.679 72.065 34.7826 71.8471 33.4743C71.6292 32.166 72.525 30.9304 73.8324 30.7124Z" fill="#691500"/>
</g>
<g id="Group_5">
<path id="Vector_4" d="M77.4889 53.5678C78.7963 53.3498 80.031 54.2462 80.2489 55.5545C80.4668 56.8628 79.571 58.0984 78.2637 58.3164C76.9563 58.5345 75.7216 57.6381 75.5037 56.3298C75.2858 55.0215 76.1695 53.7859 77.4889 53.5678Z" fill="#691500"/>
</g>
<g id="Group_6">
<path id="Vector_5" d="M56.8851 62.2534C58.1925 62.0353 59.4272 62.9318 59.6451 64.2401C59.863 65.5484 58.9672 66.784 57.6598 67.002C56.3525 67.22 55.1177 66.3236 54.8999 65.0153C54.682 63.707 55.5777 62.4714 56.8851 62.2534Z" fill="#691500"/>
</g>
<g id="Group_7">
<path id="Vector_6" d="M40.8343 45.521C42.1417 45.3029 43.3764 46.1994 43.5943 47.5076C43.8122 48.8159 42.9164 50.0515 41.609 50.2696C40.3017 50.4876 39.067 49.5912 38.8491 48.2829C38.6312 46.9746 39.527 45.739 40.8343 45.521Z" fill="#691500"/>
</g>
<g id="Group_8">
<path id="Vector_7" d="M59.088 46.6278C58.8338 46.6399 58.5917 46.4945 58.4949 46.2522L51.4618 29.2082C51.3286 28.8932 51.486 28.5419 51.7886 28.4208C52.1033 28.2875 52.4544 28.445 52.5754 28.7479L59.6085 45.7919C59.7417 46.1069 59.5843 46.4582 59.2817 46.5793C59.2212 46.6035 59.1606 46.6156 59.088 46.6278Z" fill="#691500"/>
</g>
<g id="Group_9">
<path id="Vector_8" d="M59.7054 46.6274C59.657 46.6274 59.6085 46.6274 59.548 46.6153C59.1607 46.5548 58.8943 46.1792 58.9549 45.7916C59.778 40.619 60.8433 35.4101 62.1143 30.3223C62.2112 29.9347 62.5985 29.7045 62.9859 29.8014C63.3733 29.8983 63.6033 30.286 63.5064 30.6736C62.2475 35.7251 61.1943 40.8855 60.3712 46.0217C60.3106 46.3609 60.0322 46.6032 59.7054 46.6274Z" fill="#691500"/>
</g>
<g id="Group_10">
<path id="Vector_9" d="M59.5124 46.9645C59.3308 46.9766 59.1613 46.9039 59.0281 46.7585C58.8103 46.5042 58.8345 46.1286 59.0766 45.8984C63.8944 41.6223 68.8454 37.3098 73.8085 33.0942C74.0628 32.8762 74.438 32.9125 74.6559 33.1669C74.8738 33.4213 74.8375 33.8089 74.5833 34.0148C69.6323 38.2304 64.6813 42.5308 59.8755 46.807C59.7787 46.9039 59.6455 46.9523 59.5124 46.9645Z" fill="#691500"/>
</g>
<g id="Group_11">
<path id="Vector_10" d="M77.4995 55.8712C77.3905 55.8712 77.2816 55.8591 77.1847 55.7985L67.8032 50.7955C64.9343 49.2692 61.9686 47.6823 58.8575 46.6405C58.5428 46.5315 58.3733 46.1923 58.4823 45.8773C58.5912 45.5624 58.9302 45.3928 59.2449 45.5018C62.4528 46.5799 65.4669 48.1911 68.3722 49.7416L77.7537 54.7446C78.0442 54.9021 78.1653 55.2655 78.0079 55.5684C77.8989 55.7501 77.7053 55.8591 77.4995 55.8712Z" fill="#691500"/>
</g>
<g id="Group_12">
<path id="Vector_11" d="M57.0309 64.956C57.0067 64.956 56.9825 64.956 56.9462 64.956C56.6073 64.9318 56.3652 64.6411 56.3894 64.3019C56.8857 57.9785 57.6846 51.6067 58.762 45.356C58.8225 45.0289 59.113 44.7987 59.4641 44.8593C59.7909 44.9199 60.0088 45.2348 59.9604 45.5619C58.8951 51.7762 58.0962 58.1239 57.5999 64.3988C57.5757 64.7017 57.3215 64.9439 57.0309 64.956Z" fill="#691500"/>
</g>
<g id="Group_13">
<path id="Vector_12" d="M41.6927 48.553C41.4385 48.5651 41.1964 48.4197 41.0996 48.1653C40.9785 47.8504 41.1359 47.4991 41.4385 47.3779C43.8353 46.4452 46.4863 46.324 48.8469 46.2271L58.6641 45.8031C59.0031 45.791 59.2815 46.0454 59.2936 46.3846C59.3057 46.7238 59.0515 46.9903 58.7126 47.0145L48.8953 47.4506C46.5348 47.5596 44.0895 47.6565 41.8743 48.5166C41.8138 48.5408 41.7532 48.553 41.6927 48.553Z" fill="#691500"/>
</g>
<g id="Group_14">
<path id="Vector_13" d="M58.3136 46.0075C58.2168 46.0075 58.1078 45.9953 58.011 45.9469L46.7411 40.4836C46.4384 40.3382 46.3174 39.9748 46.4626 39.672C46.6079 39.3691 46.971 39.248 47.2737 39.3933L58.5436 44.8567C58.8462 45.002 58.9673 45.3655 58.822 45.6683C58.7373 45.8742 58.5315 45.9954 58.3136 46.0075Z" fill="#691500"/>
</g>
<g id="Group_15">
<path id="Vector_14" d="M48.1461 57.4807C47.9887 57.4928 47.8192 57.4322 47.6982 57.3111C47.4561 57.0809 47.444 56.6933 47.674 56.451C50.9303 53.0228 54.4287 49.74 58.0602 46.7115C58.3144 46.4935 58.7018 46.5298 58.9076 46.7842C59.1255 47.0386 59.0892 47.4263 58.8349 47.6322C55.2397 50.6364 51.7776 53.8829 48.5456 57.2747C48.4366 57.408 48.2913 57.4807 48.1461 57.4807Z" fill="#691500"/>
</g>
<g id="Group_16">
<path id="Vector_15" d="M69.3533 60.3012C69.1717 60.3133 68.978 60.2285 68.8449 60.0711C67.6586 58.5932 66.5328 57.0305 65.3344 55.383C63.2281 52.4757 61.0371 49.4594 58.5192 46.9155C58.2892 46.6733 58.2892 46.2977 58.5192 46.0554C58.7492 45.8253 59.1365 45.8253 59.3786 46.0554C61.957 48.6599 64.1723 51.7126 66.3149 54.6683C67.5012 56.3037 68.6149 57.8421 69.7891 59.3079C69.9949 59.5744 69.9586 59.9499 69.6922 60.1559C69.5954 60.2528 69.4743 60.3012 69.3533 60.3012Z" fill="#691500"/>
</g>
<g id="Group_17">
<path id="Vector_16" d="M59.7661 46.8104C59.4998 46.8225 59.2335 46.6529 59.1608 46.3864C59.064 46.0714 59.2456 45.7322 59.5603 45.6353C64.9592 43.9878 70.5397 42.837 76.1444 42.195C76.5075 42.1587 76.7739 42.401 76.8102 42.728C76.8465 43.0551 76.6044 43.358 76.2776 43.3943C70.7455 44.0242 65.2376 45.175 59.9114 46.7983C59.863 46.7983 59.8145 46.8104 59.7661 46.8104Z" fill="#691500"/>
</g>
<path id="Vector_17" d="M58.5558 37.3469C63.071 36.6201 67.332 39.6848 68.0583 44.2033C68.7846 48.7217 65.722 52.9858 61.2068 53.7126C56.6916 54.4394 52.4305 51.3746 51.7042 46.8562C50.9779 42.3378 54.0405 38.0858 58.5558 37.3469Z" fill="white"/>
</g>
</g>
</svg>
