<svg width="134" height="90" viewBox="0 0 134 90" fill="none" xmlns="http://www.w3.org/2000/svg">
<g id="Frame 1171275118">
<rect id="Rectangle 39899" x="0.75" width="132.332" height="90" fill="#FFFBE4"/>
<g id="Group" opacity="0.29">
<g id="Group_2">
<g id="Group_3">
<path id="Vector" d="M52.6008 21.2446C63.493 29.5004 67.8966 45.2721 67.8966 45.2721C67.8966 45.2721 51.802 48.2512 39.6238 41.7868C30.1931 36.8021 30.5048 29.6172 34.0901 23.9317C37.6753 18.2655 44.1054 14.7997 52.6008 21.2446Z" fill="#FED801"/>
<path id="Vector_2" d="M34.0901 23.9316C30.5048 29.5978 30.1931 36.7826 39.6238 41.7867C51.802 48.2317 67.8966 45.2721 67.8966 45.2721L34.0901 23.9316Z" fill="#FEE86C"/>
</g>
<g id="Group_4">
<path id="Vector_3" d="M86.0361 23.288C81.5351 36.1974 67.915 45.2515 67.915 45.2515C67.915 45.2515 60.121 30.8818 62.4982 17.2909C64.3298 6.79591 71.2665 4.86826 77.7745 6.52331C84.263 8.17836 89.5434 13.2214 86.0361 23.288Z" fill="#FED801"/>
<path id="Vector_4" d="M77.7557 6.52331C71.2477 4.86826 64.311 6.79591 62.4794 17.2909C60.1022 30.8623 67.8962 45.2515 67.8962 45.2515L77.7557 6.52331Z" fill="#FEE86C"/>
</g>
<g id="Group_5">
<path id="Vector_5" d="M94.4157 55.6888C80.7372 55.3968 67.8965 45.2523 67.8965 45.2523C67.8965 45.2523 79.1784 33.3943 92.8179 31.4667C103.379 29.9674 107.354 35.9645 107.782 42.6626C108.25 49.3412 105.074 55.9225 94.4157 55.6888Z" fill="#FED801"/>
<path id="Vector_6" d="M107.801 42.6431C107.372 35.945 103.378 29.9479 92.8363 31.4472C79.1773 33.3748 67.915 45.2327 67.915 45.2327L107.801 42.6431Z" fill="#FEE86C"/>
</g>
<g id="Group_6">
<path id="Vector_7" d="M66.1827 73.6799C62.2273 60.5953 67.9364 45.252 67.9364 45.252C67.9364 45.252 82.706 52.3005 88.7659 64.6842C93.4618 74.264 88.9802 79.8912 82.745 82.364C76.4903 84.8563 69.2614 83.8828 66.1827 73.6799Z" fill="#FED801"/>
<path id="Vector_8" d="M82.7256 82.364C88.9608 79.8717 93.4424 74.2446 88.7465 64.6842C82.6866 52.3005 67.917 45.252 67.917 45.252L82.7256 82.364Z" fill="#FEE86C"/>
</g>
<g id="Group_7">
<path id="Vector_9" d="M40.3256 52.3787C51.549 44.5902 67.9164 45.2523 67.9164 45.2523C67.9164 45.2523 65.7731 61.4718 55.8552 71.0516C48.1976 78.4701 41.4558 75.9388 37.1496 70.7984C32.8823 65.6386 31.5769 58.4732 40.3256 52.3787Z" fill="#FED801"/>
<path id="Vector_10" d="M37.168 70.7981C41.4547 75.958 48.1965 78.4698 55.8736 71.0513C65.7915 61.4714 67.9348 45.252 67.9348 45.252L37.168 70.7981Z" fill="#FEE86C"/>
</g>
<g id="Group_8">
<path id="Vector_11" d="M52.6008 21.2446C63.493 29.5004 67.8966 45.2721 67.8966 45.2721C67.8966 45.2721 51.802 48.2512 39.6238 41.7868C30.1931 36.8021 30.5048 29.6172 34.0901 23.9317C37.6753 18.2655 44.1054 14.7997 52.6008 21.2446Z" fill="#FED801"/>
<path id="Vector_12" d="M34.0901 23.9316C30.5048 29.5978 30.1931 36.7826 39.6238 41.7867C51.802 48.2317 67.8966 45.2721 67.8966 45.2721L34.0901 23.9316Z" fill="#FEE86C"/>
</g>
</g>
<g id="Group_9">
<path id="Vector_13" d="M73.4306 45.33C73.4111 45.4273 73.4111 45.5247 73.3916 45.622C73.1383 47.1408 72.3004 48.5427 71.0339 49.5552C68.4034 51.6775 64.6818 51.4634 62.7722 49.0879C61.837 47.9196 61.4473 46.3814 61.7201 44.8432C61.9734 43.3244 62.8112 41.9225 64.0777 40.91C66.7082 38.7876 70.4299 39.0018 72.3394 41.3773C73.2162 42.4872 73.6059 43.8891 73.4306 45.33ZM63.6101 45.3689C63.4932 46.3035 63.7465 47.1797 64.2921 47.8612C65.5391 49.3994 67.9942 49.4773 69.8063 48.0364C70.6832 47.316 71.2677 46.3619 71.4431 45.3105C71.6184 44.3174 71.3846 43.3633 70.8001 42.6234C69.553 41.0852 67.0979 41.0073 65.2858 42.4482C64.409 43.1686 63.8244 44.1227 63.6491 45.1741C63.6296 45.2326 63.6296 45.3105 63.6101 45.3689Z" fill="white"/>
</g>
</g>
</g>
</svg>
